<?xml version="1.0" encoding="UTF-8"?>
<svg width="512" height="512" viewBox="0 0 512 512" xmlns="http://www.w3.org/2000/svg">
  <defs>
    <linearGradient id="phoenixGradient" x1="0%" y1="0%" x2="100%" y2="100%">
      <stop offset="0%" stop-color="#FFD700" />
      <stop offset="50%" stop-color="#FFA500" />
      <stop offset="100%" stop-color="#FF4500" />
    </linearGradient>
  </defs>
  <g fill="url(#phoenixGradient)">
    <!-- Phoenix body -->
    <path d="M256 120c-30 0-60 15-80 40 40-10 80-5 120 15-10-35-25-55-40-55z" />
    <path d="M256 140c-25 0-50 10-70 30 35-5 70 0 105 15-10-30-20-45-35-45z" />
    <!-- Wings -->
    <path d="M256 160c-60 0-120 30-160 90 80-30 160-20 240 30-20-75-50-120-80-120z" />
    <path d="M256 180c-50 0-100 25-140 75 70-20 140-10 210 30-20-65-40-105-70-105z" />
    <!-- Tail feathers -->
    <path d="M256 200c-40 0-80 20-120 60 60-15 120-5 180 30-15-55-35-90-60-90z" />
    <!-- Head and beak -->
    <path d="M256 150c10-10 20-15 30-15 10 0 20 5 30 15-10-20-20-30-30-30-10 0-20 10-30 30z" />
    <path d="M286 135c5-5 10-7.5 15-7.5 5 0 10 2.5 15 7.5-5-10-10-15-15-15-5 0-10 5-15 15z" />
    <!-- Flames -->
    <path d="M256 220c-30 0-60 15-90 45 50-10 100 0 150 30-15-45-35-75-60-75z" />
    <path d="M256 240c-20 0-40 10-60 30 35-5 70 5 105 30-15-35-25-60-45-60z" />
    <path d="M256 260c-15 0-30 7.5-45 22.5 25-2.5 50 5 75 22.5-10-25-15-45-30-45z" />
  </g>
</svg>